<?xml version="1.0" standalone="no"?>
<!DOCTYPE svg PUBLIC "-//W3C//DTD SVG 20010904//EN"
 "http://www.w3.org/TR/2001/REC-SVG-20010904/DTD/svg10.dtd">
<svg version="1.0" xmlns="http://www.w3.org/2000/svg"
 width="160.000000pt" height="160.000000pt" viewBox="0 0 160.000000 160.000000"
 preserveAspectRatio="xMidYMid meet">
<metadata>
Created by potrace 1.11, written by Peter Selinger 2001-2013
</metadata>
<g transform="translate(0.000000,160.000000) scale(0.100000,-0.100000)"
fill="#000000" stroke="none">
<path d="M680 1493 c-45 -7 -152 -44 -199 -68 -170 -85 -306 -258 -356 -450
-21 -78 -21 -251 0 -330 21 -83 86 -210 137 -270 216 -254 555 -326 843 -180
123 62 120 55 39 136 l-71 71 -51 -27 c-186 -97 -410 -64 -564 83 -221 210
-202 555 40 741 90 70 181 101 294 101 86 0 149 -14 222 -50 l60 -28 70 69
c66 66 69 70 50 84 -41 33 -183 94 -251 109 -66 15 -202 19 -263 9z"/>
<path d="M1312 1187 l-34 -35 36 -75 c86 -179 86 -360 -1 -533 l-37 -74 35
-36 34 -35 19 23 c28 35 83 155 101 223 21 78 21 250 0 330 -18 67 -72 188
-101 223 l-19 23 -33 -34z"/>
<path d="M672 1122 c-94 -34 -142 -96 -142 -185 0 -101 65 -155 240 -198 96
-23 130 -41 130 -68 0 -46 -84 -73 -155 -49 -30 10 -44 22 -58 51 l-19 37 -74
0 c-89 0 -95 -7 -71 -84 19 -60 44 -87 107 -115 99 -43 265 -35 349 17 79 48
112 151 77 237 -21 50 -90 90 -199 115 -101 24 -151 42 -161 59 -14 21 5 50
40 61 53 18 107 4 143 -36 30 -33 34 -34 102 -34 l71 0 -7 33 c-24 107 -102
164 -243 173 -60 4 -89 0 -130 -14z"/>
</g>
</svg>
